<?xml version="1.0" encoding="UTF-8"?>
<!-- Generator: Adobe Illustrator 13.0.1, SVG Export Plug-In . SVG Version: 6.00 Build 14948)  -->
<!DOCTYPE svg PUBLIC "-//W3C//DTD SVG 1.0//EN" "http://www.w3.org/TR/2001/REC-SVG-20010904/DTD/svg10.dtd">
<svg version="1.0" id="Capa_1" xmlns="http://www.w3.org/2000/svg" xmlns:xlink="http://www.w3.org/1999/xlink" x="0px" y="0px" width="400.65px" height="312.397px" viewBox="0 0 400.65 312.397" enable-background="new 0 0 400.65 312.397" xml:space="preserve">
<g>
	<g>
		
			<linearGradient id="SVGID_1_" gradientUnits="userSpaceOnUse" x1="116.2505" y1="128.2905" x2="264.7427" y2="128.2905" gradientTransform="matrix(1 0 -0.364 1 105.6624 0)">
			<stop offset="0" style="stop-color:#006EB6"/>
			<stop offset="1" style="stop-color:#006EB6"/>
		</linearGradient>
		<path fill="url(#SVGID_1_)" d="M331.424,107.048L298.346,3.576c-1.004-2.763-4.135-2.765-6.982,0l-108.41,103.482    c-0.018,0.025-0.029,0.054-0.039,0.079c-0.021,0.057-0.028,0.104-0.012,0.162c0.021,0.104,0.1,0.16,0.218,0.162h14.178    c1.426,0,2.608,0.576,3.251,1.587c0.64,1.006,0.713,2.403,0.194,3.828l-50.107,137.668c-0.908,2.501,0.383,4.532,2.891,4.534    h99.577c2.508-0.002,5.273-2.033,6.191-4.534l50.107-137.668c0.52-1.425,1.604-2.822,2.98-3.828    c1.373-1.011,2.98-1.587,4.406-1.587h14.176c0.119-0.002,0.242-0.059,0.336-0.157c0.045-0.05,0.078-0.103,0.105-0.167    C331.415,107.108,331.422,107.077,331.424,107.048z"/>
		<path d="M153.522,256.577c-1.292,0.003-2.501-0.428-3.363-1.262l0,0c-0.868-0.828-1.321-2.012-1.314-3.226l0,0    c0-0.678,0.131-1.371,0.382-2.06l0,0l50.105-137.664c0.175-0.484,0.252-0.939,0.252-1.333l0,0c0-0.501-0.119-0.896-0.3-1.179l0,0    c-0.326-0.505-0.95-0.882-1.986-0.893l0,0h-14.203c-0.556,0.085-1.564-0.554-1.663-1.356l0,0    c-0.032-0.146-0.041-0.284-0.039-0.367l0,0c0-0.292,0.075-0.518,0.121-0.639l0,0c0.023-0.052,0.071-0.196,0.207-0.394l0,0    l0.196-0.231L290.316,2.501c1.619-1.567,3.411-2.485,5.229-2.5l0,0c1.83-0.052,3.587,1.185,4.229,3.117l0,0l33.078,103.472    l-1.43,0.457l1.43-0.457c0.059,0.182,0.081,0.372,0.068,0.562l0,0c-0.019,0.223-0.056,0.323-0.064,0.371l0,0l-0.068,0.201    c-0.082,0.194-0.22,0.419-0.4,0.613l0,0c-0.349,0.361-0.818,0.609-1.421,0.624l0,0h-14.178c-1.022-0.009-2.376,0.448-3.521,1.297    l0,0c-1.147,0.833-2.063,2.037-2.456,3.13l0,0l-50.109,137.673c-1.211,3.125-4.299,5.443-7.599,5.516l0,0H153.522L153.522,256.577    z M201.815,108.243c0.532,0.836,0.77,1.809,0.77,2.79l0,0c0,0.78-0.15,1.575-0.432,2.355l0,0l-50.107,137.668    c-0.144,0.396-0.201,0.745-0.201,1.033l0,0c0.09,0.986,0.378,1.386,1.682,1.487l0,0l99.577,0.002    c1.715,0.067,4.158-1.677,4.781-3.549l0,0l50.108-137.668c0.646-1.755,1.9-3.347,3.501-4.521l0,0    c1.606-1.175,3.467-1.872,5.295-1.88l0,0H329.5L296.936,4.089c-0.382-0.889-0.694-1.035-1.392-1.087l0,0    c-0.713-0.015-1.913,0.447-3.146,1.659l0,0l-106.123,101.3h11.023c0.012,0,0.024,0,0.036,0l0,0    C199.136,105.96,200.859,106.736,201.815,108.243L201.815,108.243z"/>
	</g>
	<g>
		<path fill="#FFFFFF" d="M215.176,216.467l-33.079-103.473c-1.005-2.762-4.134-2.766-6.981,0L66.705,216.476    c-0.018,0.026-0.03,0.055-0.039,0.081c-0.021,0.056-0.028,0.104-0.013,0.162c0.021,0.104,0.101,0.159,0.219,0.162h14.177    c1.427,0,2.608,0.575,3.251,1.587c0.64,1.006,0.713,2.401,0.194,3.827l-8.632,23.717c-0.908,2.501,0.383,4.532,2.891,4.535h99.577    c2.51-0.003,5.274-2.034,6.192-4.535l8.633-23.717c0.519-1.426,1.603-2.821,2.979-3.827c1.374-1.012,2.98-1.587,4.408-1.587    h14.176c0.119-0.003,0.24-0.059,0.334-0.158c0.047-0.049,0.08-0.104,0.105-0.166C215.167,216.526,215.172,216.496,215.176,216.467    z"/>
		<path d="M78.749,252.046c-1.293,0.002-2.503-0.43-3.364-1.264l0,0c-0.867-0.828-1.321-2.011-1.314-3.226l0,0    c0-0.678,0.131-1.37,0.383-2.059l0,0l8.629-23.712c0.175-0.488,0.254-0.943,0.254-1.335l0,0c-0.002-0.503-0.121-0.894-0.304-1.181    l0,0c-0.324-0.503-0.946-0.88-1.984-0.89l0,0H66.833c-0.536,0.078-1.538-0.543-1.646-1.337l0,0    c-0.032-0.141-0.046-0.29-0.044-0.388l0,0c0.002-0.312,0.079-0.52,0.1-0.576l0,0c0.044-0.131,0.106-0.276,0.212-0.438l0,0    l0.214-0.251l108.4-103.472c1.62-1.564,3.408-2.483,5.226-2.498l0,0c1.832-0.052,3.587,1.185,4.229,3.115l0,0l33.081,103.474    l-1.431,0.458l1.431-0.458c0.069,0.217,0.086,0.435,0.057,0.661l0,0c-0.013,0.085-0.033,0.2-0.073,0.333l0,0l-0.043,0.116    c-0.079,0.202-0.221,0.443-0.403,0.63l0,0c-0.344,0.364-0.824,0.613-1.425,0.631l0,0h-14.177    c-1.025-0.009-2.379,0.446-3.522,1.297l0,0c-1.15,0.834-2.063,2.034-2.454,3.13l0,0l-8.636,23.72    c-1.21,3.125-4.298,5.444-7.598,5.519l0,0H78.749L78.749,252.046z M85.565,217.662c0.53,0.836,0.771,1.809,0.77,2.79l0,0    c0,0.78-0.15,1.572-0.433,2.356l0,0l-8.632,23.716c-0.144,0.397-0.199,0.744-0.199,1.033l0,0c0.089,0.985,0.378,1.387,1.682,1.489    l0,0h99.575c1.718,0.068,4.161-1.677,4.785-3.548l0,0l8.632-23.716c0.646-1.759,1.9-3.348,3.5-4.522l0,0    c1.607-1.177,3.466-1.872,5.296-1.88l0,0h12.713l-32.565-101.873c-0.383-0.888-0.695-1.033-1.394-1.087l0,0    c-0.711-0.013-1.909,0.447-3.144,1.659l0,0L70.025,215.38h11.023c0.012,0,0.024,0,0.036,0l0,0    C82.887,215.38,84.611,216.156,85.565,217.662L85.565,217.662z"/>
	</g>
	<g>
		
			<linearGradient id="SVGID_2_" gradientUnits="userSpaceOnUse" x1="192.6772" y1="180.7349" x2="341.1714" y2="180.7349" gradientTransform="matrix(1 0 -0.364 1 105.6624 0)">
			<stop offset="0" style="stop-color:#FFED00"/>
			<stop offset="1" style="stop-color:#FFED00"/>
		</linearGradient>
		<path fill="url(#SVGID_2_)" d="M368.024,216.467l-33.08-103.473c-1.004-2.762-4.135-2.766-6.98,0L219.551,216.476    c-0.016,0.026-0.029,0.055-0.039,0.081c-0.02,0.056-0.027,0.104-0.012,0.162c0.021,0.104,0.1,0.159,0.219,0.162h14.178    c1.426,0,2.607,0.575,3.25,1.587c0.641,1.006,0.713,2.401,0.195,3.827l-8.633,23.717c-0.908,2.501,0.383,4.532,2.889,4.535h99.58    c2.508-0.003,5.273-2.034,6.191-4.535l8.633-23.717c0.518-1.426,1.602-2.821,2.979-3.827c1.375-1.012,2.98-1.587,4.408-1.587    h14.176c0.119-0.003,0.24-0.059,0.336-0.158c0.045-0.049,0.078-0.104,0.105-0.166    C368.014,216.526,368.022,216.496,368.024,216.467z"/>
		<path d="M231.593,252.045c-1.293,0.003-2.502-0.429-3.363-1.263l0,0c-0.867-0.828-1.32-2.013-1.313-3.226l0,0    c0-0.681,0.132-1.373,0.383-2.06l0,0l8.63-23.708c0.176-0.49,0.254-0.947,0.254-1.339l0,0c-0.002-0.501-0.12-0.893-0.304-1.18l0,0    c-0.323-0.506-0.947-0.879-1.982-0.891l0,0h-14.215c-0.538,0.083-1.553-0.554-1.649-1.344l0,0    c-0.037-0.168-0.044-0.327-0.042-0.382l0,0c0-0.274,0.069-0.496,0.113-0.62l0,0c0.048-0.125,0.097-0.222,0.155-0.324l0,0    l0.256-0.321l108.401-103.47c1.618-1.565,3.407-2.483,5.225-2.498l0,0c1.831-0.052,3.588,1.184,4.23,3.116l0,0l33.079,103.473    l-1.427,0.456l1.427-0.456c0.06,0.18,0.082,0.37,0.069,0.559l0,0c-0.021,0.229-0.057,0.325-0.059,0.351l0,0l-0.081,0.238    c-0.076,0.175-0.202,0.391-0.398,0.604l0,0c-0.338,0.353-0.815,0.602-1.417,0.619l0,0h-14.177    c-1.026-0.009-2.379,0.446-3.522,1.299l0,0c-1.15,0.832-2.064,2.033-2.454,3.129l0,0l-8.636,23.72    c-1.212,3.127-4.299,5.444-7.599,5.518l0,0H231.593L231.593,252.045z M238.413,217.661c0.53,0.837,0.77,1.809,0.77,2.79l0,0    c0,0.781-0.151,1.573-0.432,2.357l0,0l-8.632,23.716c-0.146,0.398-0.201,0.746-0.201,1.033l0,0    c0.09,0.987,0.377,1.388,1.681,1.488l0,0l99.577,0.002c1.718,0.066,4.161-1.677,4.784-3.55l0,0l8.632-23.715    c0.646-1.758,1.9-3.349,3.499-4.524l0,0c1.609-1.175,3.469-1.869,5.298-1.877l0,0H366.1l-32.567-101.874    c-0.382-0.889-0.694-1.035-1.392-1.087l0,0c-0.711-0.013-1.909,0.448-3.144,1.66l0,0l-106.127,101.3l11.026,0.002    c0.014,0,0.028,0,0.043,0l0,0C235.739,215.381,237.458,216.158,238.413,217.661L238.413,217.661z"/>
	</g>
</g>
<g>
	<path d="M20.02,293.234c-0.481-3.372-2.943-5.191-6.316-5.191c-3.157,0-7.601,1.659-7.601,10.062c0,4.604,2.034,9.475,7.333,9.475   c3.533,0,5.995-2.355,6.584-6.316h6.103c-1.124,7.173-5.567,11.134-12.687,11.134C4.765,312.397,0,306.242,0,298.105   c0-8.35,4.55-14.88,13.65-14.88c6.423,0,11.883,3.211,12.472,10.009H20.02z"/>
	<path d="M29.729,298.389c0-8.089,4.863-13.925,13.361-13.925s13.361,5.836,13.361,13.925c0,8.14-4.863,13.976-13.361,13.976   S29.729,306.529,29.729,298.389z M50.615,298.389c0-4.557-2.304-9.317-7.525-9.317s-7.525,4.761-7.525,9.317   c0,4.607,2.304,9.368,7.525,9.368S50.615,302.997,50.615,298.389z"/>
	<path d="M83.482,305.76c0,1.434,0.308,1.997,1.382,1.997c0.358,0,0.819,0,1.434-0.103v4.044c-0.87,0.308-2.713,0.666-3.686,0.666   c-2.355,0-4.045-0.819-4.505-3.226c-2.304,2.253-6.041,3.226-9.164,3.226c-4.761,0-9.062-2.56-9.062-7.73   c0-6.604,5.273-7.679,10.188-8.242c4.198-0.768,7.936-0.307,7.936-3.737c0-3.02-3.123-3.583-5.478-3.583   c-3.276,0-5.58,1.331-5.836,4.198h-5.836c0.409-6.81,6.194-8.806,12.03-8.806c5.17,0,10.597,2.099,10.597,7.679V305.76z    M77.646,298.389c-1.792,1.177-4.607,1.126-7.167,1.587c-2.509,0.409-4.761,1.331-4.761,4.402c0,2.611,3.327,3.379,5.375,3.379   c2.56,0,6.553-1.331,6.553-5.017V298.389z"/>
	<path d="M89.935,275.096h5.836v36.552h-5.836V275.096z"/>
	<path d="M102.272,275.096h5.836v5.528h-5.836V275.096z M102.272,285.181h5.836v26.467h-5.836V285.181z"/>
	<path d="M132.323,294.038c-0.461-3.226-2.816-4.966-6.041-4.966c-3.021,0-7.27,1.587-7.27,9.624c0,4.403,1.945,9.062,7.014,9.062   c3.379,0,5.733-2.253,6.297-6.041h5.836c-1.075,6.86-5.324,10.648-12.133,10.648c-8.294,0-12.85-5.888-12.85-13.669   c0-7.986,4.352-14.231,13.054-14.231c6.144,0,11.365,3.071,11.929,9.573H132.323z"/>
	<path d="M143.075,275.096h5.836v5.528h-5.836V275.096z M143.075,285.181h5.836v26.467h-5.836V285.181z"/>
	<path d="M154.03,298.389c0-8.089,4.863-13.925,13.361-13.925s13.361,5.836,13.361,13.925c0,8.14-4.863,13.976-13.361,13.976   S154.03,306.529,154.03,298.389z M174.917,298.389c0-4.557-2.304-9.317-7.525-9.317s-7.525,4.761-7.525,9.317   c0,4.607,2.304,9.368,7.525,9.368S174.917,302.997,174.917,298.389z M168.108,274.226h6.911l-7.27,7.32h-4.249L168.108,274.226z"/>
	<path d="M185.617,285.181h5.529v3.891l0.103,0.103c1.74-2.918,4.761-4.71,8.243-4.71c5.732,0,9.366,3.071,9.366,9.01v18.174h-5.834   V295.01c-0.103-4.146-1.741-5.938-5.17-5.938c-3.891,0-6.4,3.071-6.4,6.962v15.614h-5.836V285.181z"/>
	<path d="M248.054,293.234c-0.481-3.372-2.943-5.191-6.316-5.191c-3.157,0-7.601,1.659-7.601,10.062   c0,4.604,2.034,9.475,7.333,9.475c3.533,0,5.995-2.355,6.584-6.316h6.103c-1.124,7.173-5.567,11.134-12.687,11.134   c-8.671,0-13.436-6.155-13.436-14.292c0-8.35,4.55-14.88,13.65-14.88c6.423,0,11.883,3.211,12.472,10.009H248.054z"/>
	<path d="M281.161,305.76c0,1.434,0.308,1.997,1.382,1.997c0.358,0,0.819,0,1.434-0.103v4.044c-0.87,0.308-2.713,0.666-3.686,0.666   c-2.355,0-4.045-0.819-4.505-3.226c-2.304,2.253-6.041,3.226-9.164,3.226c-4.761,0-9.061-2.56-9.061-7.73   c0-6.604,5.272-7.679,10.187-8.242c4.198-0.768,7.936-0.307,7.936-3.737c0-3.02-3.123-3.583-5.478-3.583   c-3.276,0-5.58,1.331-5.836,4.198h-5.836c0.409-6.81,6.194-8.806,12.03-8.806c5.17,0,10.597,2.099,10.597,7.679V305.76z    M275.325,298.389c-1.792,1.177-4.607,1.126-7.167,1.587c-2.509,0.409-4.761,1.331-4.761,4.402c0,2.611,3.327,3.379,5.375,3.379   c2.56,0,6.553-1.331,6.553-5.017V298.389z"/>
	<path d="M287.458,285.181h5.529v3.891l0.103,0.103c1.74-2.918,4.761-4.71,8.242-4.71c5.733,0,9.368,3.071,9.368,9.01v18.174h-5.836   V295.01c-0.103-4.146-1.741-5.938-5.171-5.938c-3.891,0-6.399,3.071-6.399,6.962v15.614h-5.836V285.181z"/>
	<path d="M339.011,305.76c0,1.434,0.308,1.997,1.382,1.997c0.358,0,0.819,0,1.434-0.103v4.044c-0.87,0.308-2.713,0.666-3.686,0.666   c-2.355,0-4.045-0.819-4.505-3.226c-2.304,2.253-6.041,3.226-9.164,3.226c-4.761,0-9.062-2.56-9.062-7.73   c0-6.604,5.273-7.679,10.188-8.242c4.198-0.768,7.936-0.307,7.936-3.737c0-3.02-3.123-3.583-5.478-3.583   c-3.276,0-5.58,1.331-5.836,4.198h-5.836c0.409-6.81,6.194-8.806,12.03-8.806c5.17,0,10.597,2.099,10.597,7.679V305.76z    M333.175,298.389c-1.792,1.177-4.607,1.126-7.167,1.587c-2.509,0.409-4.761,1.331-4.761,4.402c0,2.611,3.327,3.379,5.375,3.379   c2.56,0,6.553-1.331,6.553-5.017V298.389z"/>
	<path d="M345.309,285.181h5.478v5.119h0.103c0.666-2.815,4.146-5.836,7.73-5.836c1.331,0,1.689,0.103,2.201,0.153v5.632   c-0.819-0.103-1.689-0.256-2.509-0.256c-3.992,0-7.167,3.225-7.167,9.061v12.594h-5.836V285.181z"/>
	<path d="M363.484,275.096h5.836v5.528h-5.836V275.096z M363.484,285.181h5.836v26.467h-5.836V285.181z"/>
	<path d="M397.834,305.76c0,1.434,0.308,1.997,1.382,1.997c0.358,0,0.819,0,1.434-0.103v4.044c-0.87,0.308-2.713,0.666-3.686,0.666   c-2.355,0-4.045-0.819-4.505-3.226c-2.304,2.253-6.041,3.226-9.164,3.226c-4.761,0-9.061-2.56-9.061-7.73   c0-6.604,5.272-7.679,10.187-8.242c4.198-0.768,7.936-0.307,7.936-3.737c0-3.02-3.123-3.583-5.478-3.583   c-3.276,0-5.58,1.331-5.836,4.198h-5.836c0.409-6.81,6.194-8.806,12.03-8.806c5.17,0,10.597,2.099,10.597,7.679V305.76z    M391.999,298.389c-1.792,1.177-4.607,1.126-7.167,1.587c-2.509,0.409-4.761,1.331-4.761,4.402c0,2.611,3.327,3.379,5.375,3.379   c2.56,0,6.553-1.331,6.553-5.017V298.389z"/>
</g>
</svg>