<?xml version="1.0" encoding="UTF-8"?>
<!-- Generator: Adobe Illustrator 16.0.0, SVG Export Plug-In . SVG Version: 6.00 Build 0)  -->
<!DOCTYPE svg PUBLIC "-//W3C//DTD SVG 1.1//EN" "http://www.w3.org/Graphics/SVG/1.1/DTD/svg11.dtd">
<svg version="1.1" id="Capa_1" xmlns="http://www.w3.org/2000/svg" xmlns:xlink="http://www.w3.org/1999/xlink" x="0px" y="0px" width="111px" height="97.5px" viewBox="0 0 111 97.5" enable-background="new 0 0 111 97.5" xml:space="preserve">
<path fill="#F18624" d="M10.208,86.867V16.269c0-3.496,2.834-6.331,6.331-6.331h77.922c3.496,0,6.331,2.834,6.331,6.331v48.339  c0,3.496-2.834,6.331-6.331,6.331h-63.67L10.208,86.867z"/>
<g id="_x23_f68934ff" transform="matrix(0.1,0,0,0.1,-0.675,-4.581)">
	<path id="path6" fill="#FFFFFF" d="M272.277,312.353c-27.48,25.195-44.673,60.264-51.045,96.748   c-7.388,42.842-1.938,88.564,18.647,127.188c16.006,30.576,42.388,55.557,73.804,69.873   c31.396,14.922,67.305,18.018,101.445,13.545c36.279-5,71.836-21.973,95.137-50.771c19.814-24.17,29.473-55.225,31.23-86.152   c-29.551,0.078-59.082,0-88.623,0.049c-1.631,13.457-5.029,27.178-13.35,38.203c-8.926,12.529-23.359,20.234-38.335,22.764   c-19.727,3.281-41.475,1.016-57.983-11.064c-15.889-10.83-25.562-28.545-30.781-46.641c-8.774-32.197-7.563-67.803,6.353-98.389   c9.253-20.449,28.027-36.67,50.371-40.713c22.153-3.428,46.841-0.605,64.634,14.121c11.123,8.877,16.719,22.578,19.16,36.26   c29.531,0.02,59.102,0.059,88.652-0.02c-0.996-18.867-5.381-37.793-14.961-54.238c-19.668-34.863-55.625-58.32-93.848-68.135   C377.624,260.39,314.24,272.46,272.277,312.353L272.277,312.353z M579.729,276.298c-0.01,29.58-0.01,59.141,0,88.721   c11.396,0.02,22.773,0.02,34.17,0c0.557,20.283-13.74,40.244-34.17,43.789c-0.068,12.861,0.02,25.693-0.068,38.564   c19.336-2.969,38.711-10.508,52.188-25.137c17.012-17.852,23.77-43.096,24.033-67.227c0.225-26.26,0.049-52.48,0.078-78.711   C630.559,276.279,605.148,276.279,579.729,276.298L579.729,276.298z M707.092,376.777c-18.486,9.189-33.76,26.494-37.012,47.285   c-2.354,17.461-0.898,36.65,9.59,51.436c8.848,13.135,23.33,20.986,37.842,26.289c23.574,7.793,48.223,11.23,72.188,17.412   c8.926,2.227,18.262,4.443,25.889,9.775c7.217,5.146,8.135,15.674,4.756,23.301c-3.809,8.896-13.711,12.637-22.412,14.932   c-16.553,3.643-36.514,1.318-48.154-12.217c-5.508-6.025-7.246-14.268-7.656-22.188c-25.723-0.049-51.445-0.029-77.188,0   c-0.117,25.518,11.289,51.562,32.52,66.357c26.094,18.281,59.004,22.676,90.098,22.334c30.449-0.283,62.422-6.484,87.09-25.361   c26.631-20.322,36.816-59.795,22.129-90.088c-9.902-19.775-29.854-33.281-51.172-37.891c-24.072-5.41-48.76-8.125-72.324-15.654   c-8.135-2.832-16.973-6.602-21.436-14.404c-4.443-7.617,0.498-18.389,8.936-20.576c14.355-4.307,30.566-5.186,44.707,0.479   c9.512,3.682,14.766,13.652,14.473,23.574c25.059,0.078,50.156,0.098,75.215,0c-0.625-21.68-8.965-43.887-26.602-57.314   c-23.105-17.314-52.871-22.09-81.055-22.881C760.109,360.878,731.896,364.482,707.092,376.777z"/>
</g>
</svg>