<?xml version="1.0" encoding="UTF-8" standalone="no"?>
<!-- Created with Inkscape (http://www.inkscape.org/) -->

<svg
   xmlns:dc="http://purl.org/dc/elements/1.1/"
   xmlns:cc="http://creativecommons.org/ns#"
   xmlns:rdf="http://www.w3.org/1999/02/22-rdf-syntax-ns#"
   xmlns:svg="http://www.w3.org/2000/svg"
   xmlns="http://www.w3.org/2000/svg"
   version="1.1"
   width="1131"
   height="1131"
   id="svg2">
  <metadata
     id="metadata8">
    <rdf:RDF>
      <cc:Work
         rdf:about="">
        <dc:format>image/svg+xml</dc:format>
        <dc:type
           rdf:resource="http://purl.org/dc/dcmitype/StillImage" />
        <dc:title></dc:title>
      </cc:Work>
    </rdf:RDF>
  </metadata>
  <defs
     id="defs6" />
  <rect
     width="1131"
     height="1131"
     x="0"
     y="0"
     id="rect2985"
     style="fill:#ffffff;stroke:none" />
  <path
     d="m 0,0 1131,0 0,1131 -1131,0 z m 540.29716,773.58542 c 12.82502,-7.77938 25.25319,-25.54727 32.0123,-45.76629 1.41222,-4.22447 3.19795,-8.94947 3.96829,-10.5 0.77034,-1.55052 1.98908,-6.19413 2.70833,-10.31913 3.03962,-17.43273 2.88098,-17.11548 10.36973,-20.73716 3.68152,-1.78043 7.87266,-3.53306 9.31366,-3.89473 2.37148,-0.5952 2.56624,-0.43042 2.05331,1.73716 -1.73538,7.33348 -1.8259,19.88625 -0.21197,29.39473 2.81206,16.56736 8.90656,26.04084 20.45478,31.79556 7.13614,3.55609 18.11603,3.69773 28.51976,0.36791 6.12021,-1.95884 7.45441,-2.85052 10.77261,-7.1996 6.69727,-8.77796 13.43307,-24.94805 18.31358,-43.96387 0.84696,-3.3 2.36469,-8.7 3.37273,-12 1.00805,-3.3 2.37622,-8.025 3.04038,-10.5 0.66416,-2.475 1.83932,-5.97777 2.61146,-7.78393 0.77214,-1.80616 1.40389,-3.95954 1.40389,-4.78528 0,-1.44872 7.37751,-16.13904 8.88593,-17.69392 1.04436,-1.07653 6.842,1.11175 7.50195,2.83156 0.30153,0.78577 -0.083,5.14183 -0.85463,9.68012 -3.18037,18.70631 -3.4673,23.80401 -2.00562,35.63201 2.67206,21.62242 6.65505,32.38724 16.83289,45.49429 7.64493,9.84516 15.65481,14.67822 28.62578,17.27241 4.72775,0.94555 11.51515,-2.10452 14.14215,-6.3551 2.1382,-3.45968 2.14925,-3.61593 0.34872,-4.93251 -1.02269,-0.74781 -2.78592,-1.36133 -3.9183,-1.36339 -1.13238,-0.002 -3.49692,-0.88057 -5.25454,-1.95226 -8.19735,-4.99824 -9.67371,-12.47681 -9.52842,-48.26645 0.0743,-18.31223 0.54374,-29.6836 1.38286,-33.5 0.69867,-3.17765 1.28627,-9.07761 1.30577,-13.11102 0.0338,-6.99022 -0.11263,-7.46571 -3.1285,-10.15903 -2.07487,-1.85295 -5.17284,-3.22842 -9,-3.99591 -9.90145,-1.98563 -14.78451,-3.28214 -16.05379,-4.26244 -0.80291,-0.62011 -1.01562,-2.41531 -0.62439,-5.26962 0.45078,-3.2888 0.0696,-5.41105 -1.58618,-8.83147 -2.73684,-5.65354 -8.10417,-8.71656 -17.07168,-9.74242 -5.82319,-0.66616 -6.93485,-0.49182 -10.67622,1.6743 -4.09508,2.37091 -6.62508,5.94967 -8.42169,11.91269 -1.35188,4.48697 1.48885,12.12971 6.40861,17.24178 l 4.07511,4.2344 -2.07506,3.7656 c -2.1757,3.9482 -9.069,20.50906 -13.84649,33.26559 -9.03528,24.12537 -20.75078,48.97886 -25.79691,54.72608 -5.0709,5.77544 -7.61807,3.73531 -8.77789,-7.03059 -2.7208,-25.25539 -2.94601,-29.20457 -1.9344,-33.92153 0.57472,-2.67982 1.04494,-6.16759 1.04494,-7.7506 0,-3.69139 3.55494,-6.5474 10.75506,-8.64053 6.30181,-1.83199 11.31791,-6.42625 15.59375,-14.28237 2.47001,-4.53824 2.83779,-6.45273 3.35912,-17.4863 0.58029,-12.28111 0.55856,-12.44753 -2.46992,-18.91923 C 660.92192,608.3347 655.42007,607.06814 639,613.42456 c -7.53887,2.91839 -10.54444,4.70491 -14.55943,8.65414 -6.71325,6.60331 -12.50596,18.27729 -18.0725,36.4213 -1.98647,6.47485 -3.22504,7.5518 -13.13078,11.41736 -8.8374,3.44865 -11.02661,3.59589 -12.38011,0.83264 -0.47145,-0.9625 -1.30047,-2.5375 -1.84226,-3.5 -0.5418,-0.9625 -1.63866,-3.20011 -2.43748,-4.97247 -2.27965,-5.05797 -12.73334,-15.27767 -15.6265,-15.27674 -3.60405,10e-4 -14.15713,5.28726 -18.63906,9.33641 -4.308,3.89202 -6.33248,9.58994 -6.53286,18.38677 -0.10105,4.43616 0.33877,5.58319 3.72573,9.71652 3.80689,4.64581 8.00656,7.55951 10.8959,7.55951 2.98116,0 3.38408,3.04282 1.41878,10.71453 C 547.46741,719.7029 533.95545,749 530.47235,749 c -0.73567,0 -1.57578,-0.7875 -1.86691,-1.75 -1.17235,-3.87578 -1.5045,-28.51146 -0.54267,-40.25 0.56332,-6.875 1.45743,-18.575 1.9869,-26 1.22715,-17.20862 2.32594,-27.22308 4.22424,-38.5 0.83326,-4.95 2.06993,-12.825 2.74818,-17.5 0.67824,-4.675 1.86499,-10.05158 2.63722,-11.94796 1.5339,-3.7668 3.00822,-12.9318 3.83134,-23.81722 0.28996,-3.8346 2.14224,-12.31864 4.11619,-18.85341 4.8665,-16.11061 4.81553,-15.1454 1.15247,-21.82305 -2.44652,-4.45996 -4.50618,-6.70398 -8.25931,-8.99863 -4.5466,-2.77977 -5.73073,-3.04727 -13.05826,-2.94991 -4.43204,0.0589 -10.45893,0.72235 -13.3931,1.47435 -5.24541,1.34436 -5.38375,1.47628 -8.25218,7.86948 -1.60454,3.57622 -3.52608,9.66214 -4.2701,13.52428 -1.41008,7.31962 -2.37386,11.64702 -5.5728,25.02207 -1.05235,4.4 -2.57217,12.05 -3.37738,17 -0.8052,4.95 -1.9467,11.025 -2.53667,13.5 -6.1203,25.67567 -8.86043,75.48434 -5.5584,101.03801 3.31751,25.67348 3.88926,27.525 12.65629,40.98514 4.04837,6.21552 6.51701,8.81983 11.33741,11.96044 12.80189,8.34076 23.1834,9.84203 31.82235,4.60183 z M 553.68333,676.35 c -1.06527,-1.06527 -0.80245,-4.35 0.34805,-4.35 1.47853,0 2.40944,2.95918 1.28474,4.08388 -0.5222,0.5222 -1.25695,0.64195 -1.63279,0.26612 z m 88.98334,-14.01667 c -1.23012,-1.23011 -0.68418,-5.60386 1.96623,-15.75211 C 647.80038,634.45308 652.30118,624 654.35573,624 c 0.81463,0 2.47882,1.61427 3.6982,3.58726 1.92964,3.12223 2.13503,4.45098 1.58435,10.25 -1.05285,11.08716 -2.32355,14.16788 -8.21334,19.91274 -5.10271,4.97714 -7.24393,6.09767 -8.75827,4.58333 z m 56.79861,-42.28485 c -5.01431,-2.0325 -5.65602,-8.40062 -1.16359,-11.54724 3.05354,-2.13878 5.42603,-1.86443 8.24376,0.95331 5.91584,5.91583 0.68562,13.74171 -7.08017,10.59393 z m -306.33772,152.2906 c 1.07109,-1.29623 1.31049,-5.41325 1.09032,-18.75 -0.19097,-11.56799 0.25265,-21.28908 1.37311,-30.08908 1.1345,-8.91033 1.49081,-16.89145 1.13259,-25.36989 -0.48234,-11.41628 -0.38077,-12.407 1.31757,-12.85112 1.38218,-0.36145 2.00821,-1.82592 2.51521,-5.88375 0.37125,-2.97139 0.46542,-6.20394 0.20928,-7.18344 -0.43057,-1.64648 1.50267,-64.54288 2.62585,-85.42989 0.48312,-8.98433 -1.43647,-22.23545 -5.79588,-40.0095 -2.35448,-9.59963 -6.6337,-15.0788 -14.59561,-18.68838 -6.8662,-3.11284 -13.8332,-2.79273 -18.41189,0.84595 l -3.6869,2.92998 -0.38455,15.32002 c -0.2115,8.42601 -0.83947,18.47002 -1.3955,22.32002 -0.55602,3.85 -1.50447,12.4 -2.10765,19 -0.60318,6.6 -1.52105,15.825 -2.03971,20.5 -3.26739,29.45097 -0.93048,89.07163 4.43685,113.19588 5.3424,24.01216 14.08355,40.36972 25.78312,48.24867 6.08069,4.09498 6.10978,4.10193 7.93379,1.89453 z m 595.43441,-6.68146 c 0.76032,-2.57085 4.61293,-8.55014 9.2682,-14.38435 1.99912,-2.50539 4.33773,-7.35491 5.74253,-11.90794 2.3362,-7.57204 2.3615,-8.10888 1.7774,-37.77327 -0.7236,-36.75519 1.6406,-101.60647 3.8008,-104.2542 0.5215,-0.63918 3.2726,-1.71976 6.1135,-2.4013 9.3625,-2.24601 13.1021,-4.4787 16.6358,-9.93215 1.808,-2.79029 3.0492,-5.69384 2.7582,-6.45232 -0.6255,-1.62998 -10.2876,-2.82146 -19.1584,-2.36251 l -6,0.31042 0,-20.5 c 0,-19.87695 -0.076,-20.65079 -2.5,-25.46145 -1.8012,-3.57456 -3.8319,-5.76711 -7.26477,-7.84363 -4.88172,-2.95293 -14.91089,-5.87597 -16.45995,-4.79732 -2.91592,2.03043 -9.80831,25.15589 -12.2105,40.96884 -0.61548,4.05155 -1.49932,8.10155 -1.9641,9 -0.46477,0.89846 -1.14962,3.73426 -1.52187,6.30179 -0.37226,2.56753 -1.21728,5.08236 -1.87782,5.58851 -1.39186,1.06654 -15.46449,3.99606 -24.18779,5.03522 -4.62254,0.55065 -6.06559,1.12232 -6.33257,2.50864 -0.82731,4.29586 4.42464,6.98016 17.9311,9.16467 5.08725,0.8228 9.61963,1.86609 10.07197,2.31843 0.45234,0.45234 0.15398,5.52355 -0.66303,11.26937 -0.817,5.74581 -2.02329,23.36382 -2.68064,39.15113 -1.31168,31.50238 -0.55305,48.03979 3.19935,69.74209 4.09237,23.66851 8.44274,34.81244 17.5402,44.93099 4.69305,5.21981 6.82458,5.69521 7.98239,1.78034 z M 282,764.46709 c 38.21654,-0.79176 49.25861,-4.75417 59.71879,-21.42988 1.66661,-2.65692 2.22656,-5.09878 2.25,-9.81196 0.029,-5.82831 -0.15129,-6.34414 -2.53389,-7.25 -3.57383,-1.35877 -17.86287,-1.19392 -45.9349,0.52994 -13.2,0.81059 -26.03926,1.47853 -28.53168,1.4843 -4.47833,0.0104 -4.54588,-0.0395 -5.73706,-4.23949 -2.05496,-7.2456 -8.28019,-66.01287 -8.5009,-80.25 -0.0374,-2.41288 2.11386,-55.14629 2.93949,-72.05518 l 0.58864,-12.05517 -7.15972,-8.07241 c -6.80095,-7.6679 -7.55086,-8.20167 -14.96532,-10.65218 -8.14281,-2.69123 -12.73466,-2.56626 -14.19861,0.38642 -0.85582,1.72612 -3.69651,13.99945 -4.38568,18.94852 -0.26806,1.925 -1.37824,9.125 -2.46706,16 -3.51398,22.18777 -4.33095,35.60594 -4.2011,69 0.12249,31.49984 1.14603,47.44038 5.22527,81.37761 0.86253,7.17584 0.81085,9.11551 -0.26959,10.11865 -1.7386,1.61421 -7.46246,3.50374 -10.61371,3.50374 -2.35455,0 -2.4447,0.21194 -1.80138,4.23503 0.87807,5.49116 5.18738,15.05596 7.92927,17.59957 3.06764,2.8458 14.85423,4.06678 34.14914,3.53752 8.8,-0.24138 26.125,-0.64864 38.5,-0.90503 z m 523.28676,-5.22661 c 1.0549,-0.95467 2.59957,-3.08682 3.43259,-4.73812 0.83303,-1.6513 2.32184,-3.90236 3.30847,-5.00236 0.98663,-1.1 2.8072,-4.925 4.04571,-8.5 2.14105,-6.18021 2.26107,-8.12355 2.43948,-39.5 0.18447,-32.4412 0.86641,-50.12382 2.93101,-76 0.21941,-2.75 0.70035,-9.57994 1.06875,-15.17764 0.76177,-11.57462 1.43319,-12.68556 8.35306,-13.82096 7.59448,-1.24609 12.76464,-4.16381 16.07819,-9.07357 3.23298,-4.79036 3.74827,-6.88194 1.96674,-7.98299 -0.59909,-0.37025 -6.33659,-0.95931 -12.75,-1.30901 L 824.5,577.5 824.73954,573 c 0.13175,-2.475 0.33989,-11.475 0.46253,-20 0.18479,-12.84424 -0.0702,-16.13634 -1.48789,-19.21393 -2.20499,-4.78653 -4.01375,-5.67352 -13.98728,-6.8592 -4.5248,-0.53792 -9.04972,-1.07902 -10.05539,-1.20245 -1.35244,-0.16599 -2.22652,0.94715 -3.35735,4.27558 -0.84088,2.475 -1.89226,4.95 -2.33641,5.5 -1.3251,1.64089 -4.76058,12.56733 -5.97396,19 -1.51255,8.0187 -5.89004,25.71958 -6.51513,26.34468 -0.78197,0.78196 -20.58469,4.121 -24.54753,4.13908 -1.95738,0.009 -4.43238,0.66488 -5.5,1.45767 -4.47614,3.32386 3.72443,8.43046 16.90163,10.52487 9.72825,1.54622 11.00045,2.34857 10.25816,6.46957 -4.71904,26.19869 -6.72145,83.24584 -3.72294,106.06413 1.82168,13.86282 4.94712,29.67853 7.10357,35.94637 1.91877,5.57702 6.13031,12.8867 8.14064,14.12915 4.35369,2.69073 12.008,2.52162 15.16457,-0.33504 z M 934.5,760.13652 c 7.18957,-3.27047 8.85652,-7.37094 4.90538,-12.0666 -3.3698,-4.00477 -6.46163,-15.2518 -6.96506,-25.33651 -0.21324,-4.27163 -0.87449,-8.67615 -1.46945,-9.78783 -1.67579,-3.13126 -3.46934,-51.55615 -2.02678,-54.72222 1.82759,-4.01111 -0.65796,-5.76302 -7.87933,-5.55365 -6.43371,0.18652 -9.67734,1.57421 -15.2822,6.53803 -3.44269,3.04894 -3.81052,3.92047 -4.97691,11.79226 -1.03098,6.95799 -2.31293,10.57354 -7.06648,19.92992 -8.66907,17.06326 -15.88892,29.18692 -17.13375,28.77117 -2.50516,-0.83668 0.73325,-22.95722 6.25137,-42.70109 1.15288,-4.125 2.10673,-9.00011 2.11967,-10.83357 0.0136,-1.93311 2.50709,-8.65483 5.93524,-16 3.25143,-6.96654 6.16622,-13.46414 6.47732,-14.43911 0.98733,-3.09436 3.5458,-3.16395 6.65917,-0.18115 1.61084,1.54328 3.18897,3.62569 3.50695,4.62757 1.13385,3.57244 5.0761,3.32379 10.90036,-0.68753 6.18697,-4.26113 6.65277,-5.04418 5.86999,-9.86791 -0.67803,-4.17819 -3.07505,-6.59271 -9.97072,-10.04349 -9.94294,-4.97572 -19.4229,-2.82929 -31.74201,7.18696 -10.52281,8.55572 -18.2729,19.5548 -28.25088,40.09414 -11.15682,22.96598 -15.34491,38.1491 -15.34875,55.64409 -0.003,11.70198 1.13137,15.49438 5.92882,19.82859 4.42939,4.00168 8.27137,4.88618 21.98647,5.06171 10.23442,0.13098 16.14018,-2.10587 22.81744,-8.64229 4.56225,-4.46601 5.1246,-4.36915 7.26846,1.25199 0.73418,1.925 2.14262,4.67525 3.12986,6.11166 2.22557,3.23813 14.63075,13.47404 17.92458,14.79013 3.94922,1.57797 12.1162,1.19759 16.43124,-0.76527 z M 448.12525,750.5 c 0.35097,-1.65 0.69451,-5.475 0.76344,-8.5 0.13817,-6.06374 3.07305,-19.33988 5.60642,-25.36103 3.67187,-8.72706 5.94068,-48.79512 3.4936,-61.6985 -1.82887,-9.64359 -3.65419,-12.09391 -10.98871,-14.75125 -12.04378,-4.36353 -13.76277,-4.08609 -16.58872,2.67736 -3.8443,9.20071 -7.41128,33.8635 -7.41128,51.24307 0,9.85376 2.3328,28.90457 4.38605,35.8186 2.21981,7.47489 5.41986,12.98625 10.91197,18.79334 5.82572,6.15984 8.7815,6.69474 9.82723,1.77841 z m -318.40176,-7.06727 c 0.72593,-2.713 1.15915,-6.50773 0.96272,-8.43273 -0.41728,-4.08933 2.144,-15.96673 5.2675,-24.42692 3.32102,-8.9952 4.95782,-25.32515 4.49748,-44.87025 -0.52072,-22.10851 -2.66954,-28.74012 -9.80488,-30.25938 -1.73047,-0.36846 -5.15249,-1.57289 -7.60449,-2.67651 -6.62945,-2.98387 -8.98475,-1.78169 -11.76033,6.00265 -5.08094,14.24994 -8.18509,44.20743 -6.40255,61.78978 1.4926,14.7226 4.44741,27.43226 7.81686,33.62305 2.93651,5.39533 12.69504,15.1873 14.5269,14.57668 0.64951,-0.2165 1.77487,-2.61337 2.50079,-5.32637 z m 324.10238,-116.7553 c 2.76462,-2.81695 4.42704,-5.51642 4.77269,-7.75 0.47305,-3.05677 0.11789,-3.75187 -3.28407,-6.42743 -3.69242,-2.90399 -4.12876,-2.99492 -13.63475,-2.8414 -7.78631,0.12575 -10.21995,0.52031 -11.75,1.90499 -2.33507,2.11321 -2.48192,4.73325 -0.3638,6.49113 0.86126,0.71479 2.26263,2.68239 3.11416,4.37245 0.85152,1.69006 2.70604,4.31033 4.12115,5.82283 2.15643,2.30483 3.39928,2.75 7.67763,2.75 4.69803,0 5.44267,-0.34437 9.34699,-4.32257 z m -318.40342,-5.91025 c 6.34481,-7.25307 6.30783,-10.41864 -0.17245,-14.76334 -4.66859,-3.13005 -4.89363,-3.17344 -13.13102,-2.53144 -11.98603,0.93416 -16.20363,4.42794 -11.01257,9.12261 1.15852,1.04775 2.94597,3.54995 3.9721,5.56046 2.72544,5.34 6.39029,7.84453 11.4788,7.84453 3.9207,0 4.6793,-0.44778 8.86514,-5.23282 z M 457,481.32905 c 17.72178,-4.85403 31.35304,-19.26173 35.04377,-37.03991 1.81675,-8.75124 0.76409,-26.42283 -2.00229,-33.61337 -7.3366,-19.06975 -25.6287,-30.77588 -48.1967,-30.84376 -16.40119,-0.0493 -28.64344,4.92188 -38.76414,15.74094 -9.56877,10.22904 -13.5705,21.20216 -13.47291,36.944 0.17189,27.72857 17.01294,46.89165 44.39227,50.51302 6.90779,0.91368 15.87552,0.25048 23,-1.70092 z m -24.36636,-17.35964 c -7.24923,-2.17167 -13.92254,-9.12732 -17.24,-17.96941 -2.41254,-6.43019 -2.45447,-22.80126 -0.076,-29.67052 2.22088,-6.41413 8.32693,-13.49492 14.00934,-16.24573 6.23381,-3.01773 17.40585,-2.88711 24.21388,0.28312 11.32235,5.27237 17.65075,19.63293 15.86217,35.99477 -1.98468,18.1557 -12.13447,28.75195 -27.34938,28.55241 -3.60451,-0.0473 -7.84352,-0.47236 -9.42002,-0.94464 z M 569.5,481.80697 c 11.30218,-2.44709 23.39731,-11.59834 27.19794,-20.57813 2.48644,-5.87473 4.31991,-13.61099 3.4354,-14.4955 -0.4438,-0.4438 -5.44853,-0.67786 -11.12163,-0.52013 l -10.31472,0.28679 -1.31105,3.79304 c -3.12414,9.03856 -9.44814,13.62118 -19.96186,14.46512 -17.56174,1.40968 -28.35754,-11.11539 -28.40846,-32.95894 -0.0285,-12.21227 2.56436,-20.48714 8.34633,-26.63685 6.08468,-6.47167 14.58562,-9.01035 23.65712,-7.06486 6.67385,1.43128 11.33873,5.55417 13.8211,12.21529 l 1.9331,5.1872 11.25669,0.28409 11.2567,0.28409 -0.59102,-4.9902 c -1.26819,-10.7079 -8.93475,-21.15625 -19.35543,-26.3785 -16.03328,-8.03496 -38.23537,-6.62727 -53.21212,3.37382 -14.96367,9.99235 -21.84099,25.65588 -20.82347,47.4267 0.88459,18.92661 6.77053,30.95148 19.40511,39.6443 11.09014,7.63022 28.41724,10.20767 44.79027,6.66267 z m 306.45729,-0.47741 c 3.00151,-0.82827 7.51042,-2.54635 10.0198,-3.81795 5.47648,-2.77514 13.53761,-11.12442 15.72085,-16.28277 2.48644,-5.87473 4.31991,-13.61099 3.4354,-14.4955 -0.4438,-0.4438 -5.44853,-0.67786 -11.12163,-0.52013 l -10.31472,0.28679 -1.31105,3.79304 c -3.12414,9.03856 -9.44814,13.62118 -19.96186,14.46512 -18.93473,1.5199 -29.61454,-12.74462 -28.19408,-37.65746 0.3351,-5.87716 1.20429,-10.29635 2.68402,-13.64632 5.34113,-12.09178 16.60856,-18.03689 29.10505,-15.35687 6.67385,1.43128 11.33873,5.55417 13.8211,12.21529 l 1.9331,5.1872 11.25669,0.28409 11.2567,0.28409 -0.59102,-4.9902 c -1.26819,-10.7079 -8.93475,-21.15625 -19.35543,-26.3785 -11.15735,-5.59142 -27.30412,-6.77545 -39.88174,-2.9245 C 822.42247,388.52186 810,406.69468 810,432.18425 c 0,24.20865 10.59351,41.21509 29.89385,47.9905 10.91981,3.83342 24.75158,4.27633 36.06344,1.15481 z m -741.16513,-0.9107 c 26.28648,-5.39224 39.32406,-23.56521 37.95048,-52.89884 -0.75938,-16.21716 -5.20894,-26.62753 -14.94181,-34.95851 C 147.11458,383.41448 135.62795,380.82437 107.5,381.21924 l -20,0.28076 -0.26031,49 c -0.143171,26.95 -0.04479,49.5625 0.218615,50.25 0.752023,1.96279 37.401135,1.7064 47.333855,-0.33114 z m -24.29391,-17.56283 c -0.29032,-0.75655 -0.40869,-15.32115 -0.26305,-32.36579 L 110.5,399.5 l 7,-0.32666 c 14.21973,-0.66357 22.69972,3.25016 27.94497,12.89732 2.6413,4.85793 2.98874,6.55996 3.36945,16.50609 0.51709,13.50912 -1.06833,20.02334 -6.38493,26.23459 -5.64473,6.5946 -10.22346,8.49552 -21.66644,8.99512 -7.63663,0.33341 -9.85082,0.12839 -10.2648,-0.95043 z M 254.5,473 l 0,-8.5 -22,-0.5 -22,-0.5 0,-12 0,-12 16.5,-0.5 16.5,-0.5 0,-8 0,-8 -16.5,-0.5 -16.5,-0.5 0,-11 0,-11 21,-0.5 21,-0.5 0,-8.5 0,-8.5 -32.5,0 -32.5,0 -0.26031,49 c -0.14317,26.95 -0.0425,49.56858 0.2238,50.26351 0.37947,0.99039 7.67713,1.20656 33.76031,1 L 254.5,481.5 z m 33.26358,-24.82881 c 0.1843,-23.30384 0.58828,-33.22057 1.34307,-32.96897 0.59372,0.1979 7.00011,15.19587 14.23642,33.3288 L 316.5,481.5 l 3.80707,0 3.80706,0 12.80664,-32.45457 c 7.04365,-17.85001 13.31178,-32.62295 13.92917,-32.82874 0.81132,-0.27044 1.19566,8.7272 1.38629,32.45457 L 352.5,481.5 l 11,0 11,0 0,-50 0,-50 -14.1055,-0.27658 c -10.52789,-0.20642 -14.37525,0.0485 -15.16904,1.00491 -0.58494,0.70482 -5.8712,14.21678 -11.74723,30.02658 -5.87603,15.8098 -11.19996,28.73851 -11.83096,28.73047 -0.631,-0.008 -6.13798,-13.39554 -12.23773,-29.75 L 298.31907,381.5 l -14.90953,0 -14.90954,0 -0.26031,49 c -0.14317,26.95 -0.0383,49.57949 0.2331,50.28775 0.36477,0.952 2.90955,1.21272 9.76031,1 L 287.5,481.5 z M 639,462.5 l 0.5,-19 3.81979,-0.31453 c 2.10088,-0.17298 4.42953,0.19152 5.17478,0.81003 0.74525,0.6185 5.96325,8.63503 11.59555,17.81452 5.63231,9.17949 10.9109,17.47748 11.73021,18.43998 1.24826,1.46643 3.23742,1.75 12.27564,1.75 5.9323,0 11.01921,-0.37734 11.30424,-0.83854 0.28504,-0.4612 -5.03615,-9.78557 -11.82486,-20.72083 -6.7887,-10.93526 -12.1524,-20.37923 -11.91933,-20.98661 0.23307,-0.60738 2.26194,-1.91533 4.5086,-2.90655 5.96413,-2.63137 11.55188,-8.85373 13.33116,-14.8452 4.50594,-15.17317 -1.20265,-30.11484 -13.77227,-36.04751 -8.41886,-3.97357 -15.35729,-4.78229 -38.22351,-4.45518 l -21,0.30042 -0.26031,49 c -0.14317,26.95 -0.0389,49.57781 0.23167,50.28402 0.36805,0.96058 3.20445,1.21247 11.26031,1 L 638.5,481.5 z m 0.43727,-36.80289 c -0.27498,-0.71658 -0.37336,-7.12908 -0.21862,-14.25 L 639.5,398.5 l 9.5,0.0655 c 10.524,0.0726 14.07208,1.24661 17.41007,5.76097 1.56029,2.11017 2.07875,4.26429 2.04581,8.5 C 668.37272,423.52111 663.61385,427 649.06749,427 c -6.57937,0 -9.26994,-0.36401 -9.63022,-1.30289 z m 94.02991,46.27356 c 1.66805,-5.24113 3.39688,-10.07863 3.84184,-10.75 C 737.89565,460.33555 743.02704,460 755.97631,460 l 17.85827,0 1.5196,4.25 c 0.83577,2.3375 2.28253,6.725 3.21502,9.75 0.93249,3.025 2.14099,6.0625 2.68556,6.75 C 782.55607,482.39286 804,482.53309 804,480.89875 804,478.96806 772.82523,383.55279 771.76877,382.25 771.04681,381.35971 766.7968,381 757,381 c -9.81128,0 -14.03796,0.3584 -14.74162,1.25 C 741.04054,383.79312 710,478.3418 710,480.50819 c 0,1.33239 1.50065,1.51992 10.21718,1.27679 L 730.43435,481.5 z m 10.03932,-29.96015 c -0.6721,-1.08749 10.10804,-36.94187 11.55872,-38.44385 0.49579,-0.51334 1.15416,-0.68062 1.46303,-0.37175 0.85008,0.85007 11.45144,36.04686 11.46229,38.05508 0.008,1.56949 -1.22222,1.75 -11.93152,1.75 -6.7973,0 -12.20441,-0.42623 -12.55252,-0.98948 z M 943.5,431.5 l 0,-50 -11,0 -11,0 -0.26031,49 c -0.14317,26.95 -0.0389,49.57781 0.23167,50.28402 0.36805,0.96058 3.20445,1.21247 11.26031,1 L 943.5,481.5 z m 38.5,39.5 3.5,-10.5 18.4685,0 18.4684,0 3.0316,9.5 c 1.6673,5.225 3.3956,10.0625 3.8405,10.75 1.1785,1.82089 22.691,1.77014 22.691,-0.0535 0,-0.71694 -7.1345,-23.32944 -15.8544,-50.25 l -15.8544,-48.9465 -14.8956,0 -14.8956,0 -16.17891,48.5 c -8.89841,26.675 -16.21091,49.30324 -16.25,50.28498 -0.0645,1.61953 0.87899,1.75857 10.17891,1.5 L 978.5,481.5 z m 9.56717,-28.89132 c -0.62079,-1.00446 10.17243,-37.09294 11.52703,-38.54201 0.4799,-0.51334 1.156,-0.64977 1.5026,-0.30319 1.0279,1.02785 11.3506,35.03756 11.378,37.48652 0.025,2.20912 -0.1917,2.25 -11.9158,2.25 -6.56752,0 -12.18886,-0.40109 -12.49183,-0.89132 z M 764.27006,373.39661 c 0.68681,-0.68681 -4.81454,-16.14282 -6.44513,-18.10756 -1.23423,-1.48716 -19.35394,-1.86015 -20.246,-0.41676 -0.29651,0.47976 2.39923,4.97976 5.99053,10 l 6.52963,9.12771 6.78379,0 c 3.73108,0 7.05531,-0.27153 7.38718,-0.60339 z"
     id="path2987"
     style="fill:#28296a" />
</svg>
