<?xml version="1.0" encoding="UTF-8" standalone="no"?>
<!-- Created with Inkscape (http://www.inkscape.org/) -->
<svg xmlns:dc="http://purl.org/dc/elements/1.1/" xmlns:cc="http://creativecommons.org/ns#" xmlns:rdf="http://www.w3.org/1999/02/22-rdf-syntax-ns#" xmlns:svg="http://www.w3.org/2000/svg" xmlns="http://www.w3.org/2000/svg" xmlns:sodipodi="http://sodipodi.sourceforge.net/DTD/sodipodi-0.dtd" xmlns:inkscape="http://www.inkscape.org/namespaces/inkscape" width="14.111111mm" height="14.111111mm" viewBox="0 0 49.999998 49.999998" id="svg2" version="1.1" inkscape:version="0.91 r13725" sodipodi:docname="ERC logotipo compacto.svg">
  <defs id="defs4"/>
  <sodipodi:namedview id="base" pagecolor="#ffffff" bordercolor="#666666" borderopacity="1.0" inkscape:pageopacity="0.0" inkscape:pageshadow="2" inkscape:zoom="7.9195959" inkscape:cx="25.829644" inkscape:cy="31.986728" inkscape:document-units="px" inkscape:current-layer="layer1" showgrid="false" fit-margin-top="0" fit-margin-left="0" fit-margin-right="0" fit-margin-bottom="0" inkscape:window-width="1366" inkscape:window-height="705" inkscape:window-x="-8" inkscape:window-y="-8" inkscape:window-maximized="1"/>
  <metadata id="metadata7">
    <rdf:RDF>
      <cc:Work rdf:about="">
        <dc:format>image/svg+xml</dc:format>
        <dc:type rdf:resource="http://purl.org/dc/dcmitype/StillImage"/>
        <dc:title/>
      </cc:Work>
    </rdf:RDF>
  </metadata>
  <g inkscape:label="Capa 1" inkscape:groupmode="layer" id="layer1" transform="translate(0,-1002.3622)">
    <g id="g3548">
      <path inkscape:connector-curvature="0" id="rect3545" d="m 0,1002.3622 50,0 0,50 -50,0 z" style="fill:#ffbf41;fill-opacity:1;stroke:none"/>
      <path sodipodi:nodetypes="ccccccccccccc" inkscape:connector-curvature="0" id="path3358-3" d="m 23.163335,1023.4309 0.01786,7.8199 5.735714,0 0,-1.775 -3.65,0 0,-1.3071 3.3,0.018 0,-1.7607 -3.3,0 0,-1.2571 3.65,0 0,-1.7379 z" style="fill:#000000;fill-rule:evenodd;stroke:none;stroke-width:1px;stroke-linecap:butt;stroke-linejoin:miter;stroke-opacity:1"/>
      <path sodipodi:nodetypes="ccccccccccccccc" id="path3360-5" d="m 29.913195,1023.4308 0,7.8199 2.160938,0 -0.01797,-2.5398 0.732226,0 1.558594,2.5398 2.357031,0 -1.772851,-2.707 c 2.450765,-1.1549 1.768649,-4.781 -0.553516,-5.1129 z m 2.086133,1.7252 1.641601,0.013 c 0.983741,0.033 0.956299,1.8681 0.0127,1.8815 l -1.628907,0 z" style="fill:#000000;fill-rule:evenodd;stroke:none;stroke-width:1px;stroke-linecap:butt;stroke-linejoin:miter;stroke-opacity:1" inkscape:connector-curvature="0"/>
      <path sodipodi:nodetypes="ccccccscccc" inkscape:connector-curvature="0" id="path3364-0-9" d="m 41.178039,1023.2681 c -2.279703,10e-5 -4.127759,1.8331 -4.127735,4.0942 8.4e-5,2.261 1.848109,4.0939 4.127735,4.0939 0.753222,0 1.491602,-0.2079 2.135156,-0.5961 l 0,-1.9893 c -0.445682,0.5081 -1.111197,0.7029 -1.813867,0.7034 -1.297091,10e-5 -2.288625,-0.9834 -2.288622,-2.1965 -3e-6,-1.2131 0.991531,-2.1965 2.288622,-2.1965 0.702739,5e-4 1.368266,0.1955 1.813867,0.7038 l 0,-2.0219 c -0.643674,-0.3878 -1.382046,-0.5936 -2.135156,-0.595 z" style="fill:#000000;stroke:none;stroke-width:1.10614622"/>
      <path sodipodi:nodetypes="cccccccccccccccccccc" inkscape:connector-curvature="0" id="path3388-7" d="m 14.68175,1023.4607 0,7.94 1.973656,0 0,-6.0345 z m -2.073828,0.015 -1.973616,1.9347 0,5.9906 1.973616,0 z m 6.021267,3.94 0,3.9853 1.973617,0 0,-1.9664 z m -9.968569,0.074 -1.9738145,2.0485 0,1.863 1.9738145,0 z" style="fill:#ff2600;fill-opacity:1;fill-rule:evenodd;stroke:none;stroke-width:1px;stroke-linecap:butt;stroke-linejoin:miter;stroke-opacity:1"/>
    </g>
  </g>
</svg>