<?xml version="1.0" encoding="UTF-8" standalone="no"?>
<!-- Created with Inkscape (http://www.inkscape.org/) -->

<svg
   xmlns:dc="http://purl.org/dc/elements/1.1/"
   xmlns:cc="http://creativecommons.org/ns#"
   xmlns:rdf="http://www.w3.org/1999/02/22-rdf-syntax-ns#"
   xmlns:svg="http://www.w3.org/2000/svg"
   xmlns="http://www.w3.org/2000/svg"
   version="1.1"
   width="1024"
   height="1024"
   id="svg2">
  <defs
     id="defs4" />
  <metadata
     id="metadata7">
    <rdf:RDF>
      <cc:Work
         rdf:about="">
        <dc:format>image/svg+xml</dc:format>
        <dc:type
           rdf:resource="http://purl.org/dc/dcmitype/StillImage" />
        <dc:title></dc:title>
      </cc:Work>
    </rdf:RDF>
  </metadata>
  <g
     transform="translate(0,-28.362168)"
     id="layer1">
    <g
       transform="matrix(7.8628301,0,0,7.8628301,-4544.4777,-2244.4746)"
       id="g3107">
      <g
         transform="matrix(1.25,0,0,-1.25,644.06326,403.93123)"
         id="g3153">
        <path
           d="m 0,0 c 0.75,-3.518 4.209,-5.76 7.726,-5.01 l 31.737,6.843 c 3.516,0.749 5.759,4.207 5.009,7.724 l -6.23,29.472 c -0.75,3.516 -4.209,5.758 -7.725,5.009 L -1.221,37.196 c -3.516,-0.75 -5.76,-4.208 -5.01,-7.726 L 0,0"
           id="path3155"
           style="fill:#e51635;fill-opacity:1;fill-rule:nonzero;stroke:none" />
      </g>
      <g
         transform="matrix(1.25,0,0,-1.25,643.99951,398.09873)"
         id="g3157">
        <path
           d="m 0,0 0,-5.389 13.628,0 0,5.408 -2.227,0 0,12.821 L 0,12.84 0,7.5 2.149,7.5 2.149,0 0,0"
           id="path3159"
           style="fill:#ffffff;fill-opacity:1;fill-rule:nonzero;stroke:none" />
      </g>
      <g
         transform="matrix(1.25,0,0,-1.25,658.81576,375.27498)"
         id="g3161">
        <path
           d="m 0,0 c 0,-2.481 -2.617,-4.514 -5.807,-4.514 -3.22,0 -5.837,2.033 -5.837,4.514 0,2.471 2.617,4.513 5.837,4.513 C -2.617,4.513 0,2.471 0,0"
           id="path3163"
           style="fill:#ffffff;fill-opacity:1;fill-rule:nonzero;stroke:none" />
      </g>
      <g
         transform="matrix(1.25,0,0,-1.25,653.40451,395.36248)"
         id="g3165">
        <path
           d="m 0,0 c 3.03,2.69 6.129,5.326 9.054,8.133 0.745,0.715 1.517,1.401 2.259,2.12 0.514,0.499 1.062,1.321 1.732,1.601 0.656,0.273 1.826,0.089 2.526,0.029 0.53,-0.044 1.839,-0.025 1.997,-0.677 C 17.737,10.516 16.913,9.494 16.532,9.004 15.885,8.17 15.235,7.339 14.598,6.496 13.42,4.94 12.348,3.32 11.249,1.708 10.794,1.041 10.491,0.239 10.758,-0.574 c 0.132,-0.402 0.544,-0.904 1.007,-0.904 0.996,0 2.271,1.692 2.863,2.395 0.645,0.766 1.289,1.534 1.924,2.308 2.819,3.441 5.638,6.883 8.455,10.324 0.795,0.97 1.655,2.406 2.887,1.027 1.164,-1.3 0.307,-2.66 -0.438,-3.87 C 26.261,8.759 20.475,0.499 24.358,-0.715 26.275,-1.313 29.474,4.106 30.2,3.38 31.371,2.209 29.55,0.091 28.938,-0.853 27.266,-3.427 23.065,-9.668 19.28,-6.848 c -0.78,0.581 -1.074,1.531 -1.217,2.451 -0.082,0.529 -0.154,1.089 -0.154,1.625 0,0.372 0.095,0.886 -0.068,1.294 -1.008,-1.39 -1.954,-2.86 -3.04,-4.188 -0.812,-0.993 -1.867,-1.971 -3.218,-1.971 -0.937,0 -1.809,0.704 -2.443,1.303 C 8.157,-5.405 7.06,-4.14 6.828,-2.753 6.559,-1.135 6.624,0.445 6.624,2.082 5.976,1.855 5.154,1.221 4.577,0.804 3.457,-0.003 2.337,-0.811 1.217,-1.62 0.885,-1.86 0.377,-2.382 0.121,-1.771 -0.037,-1.391 -0.455,-0.279 0,0"
           id="path3167"
           style="fill:#ffffff;fill-opacity:1;fill-rule:nonzero;stroke:none" />
      </g>
    </g>
    <g
       transform="matrix(1.3887564,0,0,-1.3887564,-13.827011,1280.1916)"
       id="g3068">
      <path
         d="m 356.75929,633.38744 c 0,0.53365 0.69444,4.99221 1.54321,9.90789 2.20147,12.74997 3.25679,26.35728 3.25679,41.9932 l 0,13.58027 19.4,0.36708 c 21.59702,0.40864 24.92938,0.97383 34.76661,5.89662 3.75177,1.87747 7.28066,4.47306 10.09991,7.42875 7.41342,7.7722 10.1083,14.93969 10.12398,26.92646 0.0251,19.20432 -9.99703,32.09468 -29.28974,37.67198 -3.70065,1.06982 -8.9984,1.42655 -24.90076,1.67672 l -20.2,0.31778 0,35.53936 0,35.53936 21.62275,0 c 25.21134,0 39.90167,-1.2969 54.17597,-4.78279 48.86174,-11.93241 77.68478,-43.0421 82.6595,-89.21721 1.75301,-16.27128 -0.1763,-36.15291 -4.86686,-50.1533 -13.19592,-39.38719 -46.19233,-63.55343 -97.59136,-71.47493 -11.07813,-1.70734 -60.8,-2.70279 -60.8,-1.21724 z"
         id="path3076"
         style="fill:#762e99" />
      <path
         d="m 173.9593,541.51727 c -33.60454,4.0923 -59.10166,14.99193 -78.270314,33.45936 -17.527325,16.88615 -28.143246,37.38791 -33.679607,65.04302 -3.449792,17.23232 -3.644474,23.59548 -3.647346,119.21326 l -0.0027,91 42.799997,0 42.8,0 0.0194,-87 c 0.0107,-47.84999 0.20918,-88.97999 0.44111,-91.39999 3.48709,-36.38483 22.61589,-55.2 56.12013,-55.2 25.4234,0 43.03445,11.61493 50.97089,33.61658 4.48058,12.42127 4.44842,11.62846 4.44842,109.68821 l 0,90.2952 42.8,0 42.8,0 0,-92.22388 c 0,-96.86487 -0.0769,-99.35305 -3.65406,-118.21026 -1.88572,-9.9407 -7.26775,-25.59471 -12.00574,-34.91953 -18.61504,-36.6362 -54.01359,-58.50857 -102.62495,-63.41083 -9.65544,-0.97371 -41.17464,-0.94248 -49.31524,0.0489 z"
         id="path3074"
         style="fill:#ec1a23" />
      <path
         d="m 292.75929,543.14774 c 15.68701,9.45627 29.22469,21.53261 39.3308,35.08518 3.50864,4.70519 8.55228,12.93 11.46652,18.69878 l 5.20268,10.29879 0,-32.89879 0,-32.89878 -29.4,0.0134 -29.4,0.0134 2.8,1.68787 z"
         id="path3072"
         style="fill:#2ca443" />
    </g>
  </g>
</svg>
