<?xml version="1.0" encoding="UTF-8" standalone="no"?>
<!-- Created with Inkscape (http://www.inkscape.org/) -->

<svg
   xmlns:dc="http://purl.org/dc/elements/1.1/"
   xmlns:cc="http://creativecommons.org/ns#"
   xmlns:rdf="http://www.w3.org/1999/02/22-rdf-syntax-ns#"
   xmlns:svg="http://www.w3.org/2000/svg"
   xmlns="http://www.w3.org/2000/svg"
   xmlns:xlink="http://www.w3.org/1999/xlink"
   version="1.1"
   width="1131"
   height="1131"
   id="svg2">
  <metadata
     id="metadata8">
    <rdf:RDF>
      <cc:Work
         rdf:about="">
        <dc:format>image/svg+xml</dc:format>
        <dc:type
           rdf:resource="http://purl.org/dc/dcmitype/StillImage" />
        <dc:title></dc:title>
      </cc:Work>
    </rdf:RDF>
  </metadata>
  <defs
     id="defs6">
    <linearGradient
       id="linearGradient3787">
      <stop
         id="stop3789"
         style="stop-color:#00a450;stop-opacity:1"
         offset="0" />
      <stop
         id="stop3803"
         style="stop-color:#4f331a;stop-opacity:1"
         offset="0.5" />
      <stop
         id="stop3791"
         style="stop-color:#e80000;stop-opacity:1"
         offset="1" />
    </linearGradient>
    <linearGradient
       x1="101.87925"
       y1="599.04657"
       x2="803.87927"
       y2="599.04657"
       id="linearGradient3793"
       xlink:href="#linearGradient3787"
       gradientUnits="userSpaceOnUse" />
    <linearGradient
       x1="302.81628"
       y1="750.88861"
       x2="209.03813"
       y2="658.6355"
       id="linearGradient3801"
       xlink:href="#linearGradient3787"
       gradientUnits="userSpaceOnUse"
       gradientTransform="matrix(3.5651559,0,0,3.5693557,-342.02753,-1963.8834)" />
  </defs>
  <path
     d="M 501.282,1027.4556 C 412.24816,1013.5191 364.22812,973.66889 353.20245,904.56982 345.459,856.04072 361.84332,786.5426 390.0242,748.38094 c 10.77759,-14.5946 40.53628,-33.55028 62.74521,-39.96734 24.41847,-7.0555 71.75974,-7.15999 123.82194,-0.27342 125.71149,16.62895 285.55232,-43.63687 372.22048,-140.34067 38.13552,-42.55136 41.61307,-55.67066 28.37296,-107.03773 -12.28998,-47.68069 -43.08692,-116.593 -50.93496,-113.97392 -1.91257,0.63828 -7.94517,13.42949 -13.40576,28.42493 -18.02562,49.5003 -31.13929,70.04368 -69.28416,108.5377 -74.24633,74.92589 -145.11419,105.24928 -233.37265,99.85694 -114.83799,-7.01625 -136.68854,-6.89791 -167.51705,0.90715 -38.30849,9.69881 -74.73935,27.43815 -109.61617,53.37558 -67.50963,50.20606 -99.18573,107.04586 -108.09495,193.9662 -2.05158,20.01545 -4.68967,37.31748 -5.86246,38.44904 -3.56505,3.43963 -30.97975,-30.07734 -48.96686,-59.86645 -51.93092,-86.0047 -76.497405,-190.06443 -67.00375,-283.81721 5.02683,-49.64164 16.65441,-97.05617 34.28906,-139.8228 83.96211,-203.62044 303.79687,-320.597618 519.3905,-276.37505 51.28463,10.51949 80.65556,32.29106 100.53341,74.52164 9.87424,20.97781 11.20695,27.75645 12.34292,62.77998 2.71595,83.73598 -24.13724,139.79099 -78.71386,164.31238 -29.56128,13.28194 -72.99478,15.58481 -134.60162,7.13665 -47.30614,-6.4871 -74.98397,-5.70082 -126.68001,3.59858 C 324.34353,441.72295 206.88257,512.6838 154.9867,588.7255 l -16.85328,24.69472 6.00718,30.60959 c 3.30394,16.83524 9.52043,41.32429 13.81441,54.42004 10.38378,31.6684 35.72314,81.10964 41.56993,81.10964 2.56699,0 9.07027,-12.04658 14.45174,-26.77017 19.86378,-54.34683 30.41718,-70.62931 72.87393,-112.4347 80.77211,-79.53288 148.71253,-104.70402 256.7871,-95.13664 97.33472,8.61663 136.62382,4.05053 192.80579,-22.40759 30.77507,-14.49309 68.47575,-40.13444 94.05296,-63.96828 40.16475,-37.42694 71.72678,-117.17024 71.72678,-181.22182 0,-35.87627 8.85798,-31.16119 47.15027,25.098 157.97799,232.10158 75.08249,552.51326 -175.49587,678.3343 -37.29219,18.72534 -76.70852,32.63851 -117.65015,41.52811 -31.49661,6.839 -123.83841,9.7442 -154.94549,4.8749 z"
     id="path3017"
     style="fill:url(#linearGradient3801);fill-opacity:1" />
</svg>
