<?xml version="1.0" encoding="UTF-8" standalone="no"?>
<!-- Created with Inkscape (http://www.inkscape.org/) -->
<svg xmlns:dc="http://purl.org/dc/elements/1.1/" xmlns:cc="http://creativecommons.org/ns#" xmlns:rdf="http://www.w3.org/1999/02/22-rdf-syntax-ns#" xmlns:svg="http://www.w3.org/2000/svg" xmlns="http://www.w3.org/2000/svg" xmlns:sodipodi="http://sodipodi.sourceforge.net/DTD/sodipodi-0.dtd" xmlns:inkscape="http://www.inkscape.org/namespaces/inkscape" id="svg5274" version="1.1" inkscape:version="0.91 r13725" width="496.54102" height="496.66772" viewBox="0 0 496.54102 496.66772" sodipodi:docname="Capture.svg">
  <metadata id="metadata5280">
    <rdf:RDF>
      <cc:Work rdf:about="">
        <dc:format>image/svg+xml</dc:format>
        <dc:type rdf:resource="http://purl.org/dc/dcmitype/StillImage"/>
        <dc:title/>
      </cc:Work>
    </rdf:RDF>
  </metadata>
  <defs id="defs5278"/>
  <sodipodi:namedview pagecolor="#ffffff" bordercolor="#666666" borderopacity="1" objecttolerance="10" gridtolerance="10" guidetolerance="10" inkscape:pageopacity="0" inkscape:pageshadow="2" inkscape:window-width="1366" inkscape:window-height="705" id="namedview5276" showgrid="false" fit-margin-top="1" fit-margin-left="1" fit-margin-right="1" fit-margin-bottom="1" inkscape:zoom="1.0173191" inkscape:cx="250.8611" inkscape:cy="241.65358" inkscape:window-x="-8" inkscape:window-y="-8" inkscape:window-maximized="1" inkscape:current-layer="svg5274"/>
  <path style="fill:#00a3df;fill-opacity:1" d="m 226.81763,494.77656 c -30.61775,-2.71848 -59.43006,-10.83565 -87.72361,-24.714 C 75.995707,439.11204 28.370885,381.46464 9.7400848,313.48628 2.6731268,287.70101 -0.30004819,258.59847 1.5261038,233.08481 4.0486918,197.84108 11.532131,169.75666 26.569396,139.10044 50.337549,90.644705 90.638277,50.343977 139.09402,26.575824 169.75024,11.538559 197.83466,4.0551196 233.07839,1.5325316 c 32.47676,-2.3245388 69.16215,3.027321 101.14683,14.7558334 13.86747,5.085087 35.95971,16.258025 48.6188,24.588495 51.29298,33.753975 88.09012,84.07357 104.04143,142.27524 13.47373,49.16171 11.15783,102.71435 -6.53348,151.07954 -7.9852,21.83026 -23.67744,49.47766 -38.76961,68.3063 -9.08272,11.33138 -26.63092,28.93328 -38.11334,38.22997 -19.40619,15.71212 -46.83008,31.39186 -69.2438,39.59048 -33.87609,12.3914 -72.237,17.54089 -107.40759,14.41817 z m 51.18607,-43.53247 c 81.42734,-12.07954 148.38612,-71.99657 168.60111,-150.87011 4.98118,-19.43523 6.44329,-31.24751 6.44329,-52.05479 0,-34.45426 -6.67469,-62.58845 -22.04174,-92.90713 -6.47412,-12.77321 -16.18415,-27.7227 -23.99119,-36.93662 l -5.56047,-6.5625 -10.46853,0.21052 c -18.33862,0.36877 -45.46686,5.17475 -68.51633,12.1382 -16.97969,5.12971 -35.25029,12.65859 -58.68832,24.18403 -22.43738,11.0334 -27.58634,13.08695 -31.44745,12.54214 -2.42337,-0.34193 -3.03817,-1.34888 -9.88,-16.18191 -7.16888,-15.54208 -20.73846,-23.92708 -45.95245,-28.39527 -12.12302,-2.14833 -53.55754,-2.18326 -73.00927,-0.0616 l -13.101653,1.42906 -3.15735,3.6299 c -10.38529,11.9396 -26.783008,41.81518 -32.866099,59.87988 -3.988818,11.84543 -7.250353,25.36794 -9.157802,37.96875 -2.238722,14.78926 -2.230711,43.4398 0.01625,58.09158 11.445426,74.63251 59.553624,134.95491 129.610684,162.51758 15.18605,5.97467 37.04614,11.07901 54.77922,12.79099 11.85594,1.14459 35.8769,0.44327 48.38811,-1.41274 z m -157.89406,-82.6835 -6.79687,-0.32354 0,-98.46117 0,-98.46116 44.76562,0.39674 c 48.4137,0.42908 50.73872,0.64605 63.22093,5.89974 8.52347,3.58747 15.46511,8.32912 21.59437,14.75052 l 5.41908,5.67736 0,-13.36218 0,-13.36218 44.76562,0.37031 c 42.41444,0.35086 45.17928,0.47839 52.64138,2.42806 29.54985,7.72072 46.27848,27.85121 47.64271,57.3311 0.96097,20.76584 -3.92282,34.38712 -16.99323,47.39545 -9.1134,9.07013 -18.5964,14.34965 -32.22164,17.93894 -8.26103,2.1762 -11.29247,2.44504 -32.31922,2.86613 l -23.20312,0.46467 0,34.57365 0,34.57366 -16.64063,-0.0103 c -9.15234,-0.006 -18.22265,-0.27181 -20.15625,-0.59141 l -3.51562,-0.5811 0,-47.92781 0,-47.92781 -7.47137,7.2344 c -5.94066,5.75223 -9.25388,8.08312 -16.17187,11.37707 -15.21952,7.24664 -25.87796,9.05197 -53.44154,9.05197 l -17.60272,0 0,34.6875 0,34.6875 -13.35938,-0.18628 c -7.34765,-0.10245 -16.41796,-0.33187 -20.15625,-0.50982 z m 81.44288,-106.7779 c 5.64066,-2.60619 11.70653,-8.14122 14.17096,-12.9308 4.40333,-8.55784 2.85429,-24.8704 -2.96691,-31.24379 -7.76571,-8.50238 -15.56368,-10.49961 -41.08443,-10.52263 l -18.04687,-0.0163 0,28.66927 0,28.66929 21.79687,-0.31141 c 19.9004,-0.28431 22.17392,-0.48562 26.13038,-2.31365 z m 135.82275,-0.46772 c 10.74957,-5.15558 15.91253,-13.2318 15.92834,-24.91614 0.009,-6.91897 -1.78288,-13.9385 -4.54739,-17.81035 -0.84547,-1.18411 -3.75091,-3.64934 -6.45654,-5.47829 -7.16489,-4.8433 -14.03614,-6.00524 -35.62754,-6.02472 l -18.04687,-0.0163 0,28.65608 0,28.6561 21.79687,-0.29672 c 21.33117,-0.29037 21.90705,-0.34955 26.95313,-2.76969 z M 282.05296,110.03979 c 6.59954,-1.24358 17.6336,-3.57229 24.52012,-5.17491 21.04293,-4.897075 43.31106,-9.214595 58.27453,-11.298745 7.83552,-1.09134 14.44513,-2.17881 14.68801,-2.41657 0.24288,-0.23778 0.004,-0.725789 -0.53108,-1.084467 -0.53497,-0.358687 -3.47588,-2.59754 -6.53535,-4.975228 -19.97379,-15.522803 -46.26913,-28.330229 -71.88142,-35.010626 -19.18591,-5.004219 -31.23471,-6.497735 -52.275,-6.479779 -24.68054,0.02107 -43.34731,2.968511 -65.625,10.362066 -17.58018,5.834536 -42.86893,19.10541 -57.07042,29.94905 -5.00506,3.821652 -4.99418,3.822608 13.03354,1.138452 16.1956,-2.411363 42.18225,-2.900873 51.06813,-0.961967 14.34846,3.130845 24.35587,7.512589 38.68174,16.936794 10.16013,6.6838 16.65608,10.10128 21.54881,11.33672 4.99816,1.26205 18.126,0.31303 32.10339,-2.32079 z" id="path5284" inkscape:connector-curvature="0"/>
</svg>